<?xml version="1.0" encoding="UTF-8"?>
<svg width="36px" height="26px" viewBox="0 0 36 26" version="1.1" xmlns="http://www.w3.org/2000/svg" xmlns:xlink="http://www.w3.org/1999/xlink">
    <!-- Generator: sketchtool 51.2 (57519) - http://www.bohemiancoding.com/sketch -->
    <title>FA4E9E7D-E509-4800-953E-F0FC32BA8726</title>
    <desc>Created with sketchtool.</desc>
    <defs></defs>
    <g id="Page-1" stroke="none" stroke-width="1" fill="none" fill-rule="evenodd">
        <g id="Sign-up-Step-2" transform="translate(-1055.000000, -220.000000)" fill="#1A8CFF" fill-rule="nonzero" stroke="#1A8CFF">
            <g id="Logo" transform="translate(1056.000000, 220.000000)">
                <path d="M27.2938667,9.09493333 C26.2970667,4.43946667 22.0982133,0.802780525 17.2944,1 C14.5827026,1.11132812 13.385437,1.56951904 11.2796021,3.24945068 C11.8486633,3.51596069 12.4329224,3.77938843 12.9658813,4.01269531 C14.6555438,2.66858952 15.1285333,2.6 17.2944,2.6 C21.5205333,2.6 25.1861333,5.75093333 25.8202667,9.93013333 L25.9141333,10.5477333 L26.536,10.6058667 C29.768,10.9125333 32.2048,13.5946667 32.2048,16.8437333 C32.2048,20.2992 29.3936,23.1098667 25.9370667,23.1098667 C22.5902222,23.1098667 20.9168,23.1098667 20.9168,23.1098667 C20.9168,23.1098667 20.5171556,23.6432 19.7178667,24.7098667 L25.9370667,24.7098667 C30.2752,24.7098667 33.8048,21.1813333 33.8048,16.8437333 C33.8048,12.9712 31.0458667,9.74026667 27.2938667,9.09493333 Z" id="Shape"></path>
                <path d="M18.1008,15.168 L18.8421333,15.168 L17.1541333,12.2442667 L15.4661333,15.168 L16.5002667,15.168 C16.5029333,15.2421333 16.5098667,15.3141333 16.5098667,15.3888 C16.5098667,19.4997333 13.1653333,22.8442667 9.0544,22.8442667 C4.944,22.8442667 1.59946667,19.4997333 1.59946667,15.3888 C1.59946667,11.2784 4.944,7.93386667 9.0544,7.93386667 C10.5471861,7.93386667 11.9678955,8.5003447 13.3165283,9.63330078 L14.4390869,8.50024414 C12.6518148,7.05563694 10.8570969,6.33333333 9.05493333,6.33333333 C4.06240473,6.33333333 0,10.3952 0,15.3882667 C0,20.3813333 4.06186667,24.4437333 9.05493333,24.4437333 C14.048,24.4437333 18.1104,20.3813333 18.1104,15.3882667 C18.1098667,15.3146667 18.1029333,15.2421333 18.1008,15.168 Z" id="Shape"></path>
            </g>
        </g>
    </g>
</svg>